<svg width="438" height="425" viewBox="0 0 438 425" fill="none" xmlns="http://www.w3.org/2000/svg">
<path d="M148 102H11L10.5 275H148V102Z" fill="white" stroke="black" stroke-width="2"/>
<path d="M212.5 424C212.833 387.5 217.8 304.6 235 265" stroke="black" stroke-width="2"/>
<path d="M54 424H38L76.5 260.5H82.5L120.5 424H105.5L78.5 318.5L54 424Z" fill="black" stroke="black" stroke-width="2"/>
<path d="M1.5 281.5V276.5H11V275H147.5V276.5H157.5V281.5H1.5Z" fill="black"/>
<path d="M11 276.5H1.5V281.5H157.5V276.5H147.5M11 276.5V275H147.5V276.5M11 276.5H147.5" stroke="black" stroke-width="2"/>
<path d="M71 278V103H87.5V278H71Z" fill="black" stroke="black" stroke-width="2"/>
<path d="M195.5 266.5L201.5 257" stroke="black" stroke-width="2"/>
<path d="M203 271.5L209 262" stroke="black" stroke-width="2"/>
<path d="M211 276.5L217 267" stroke="black" stroke-width="2"/>
<path d="M219 280.5L225 271" stroke="black" stroke-width="2"/>
<path d="M227 283.5L233 274" stroke="black" stroke-width="2"/>
<path d="M235 286.5L241 277" stroke="black" stroke-width="2"/>
<path d="M244 289.5L250 280" stroke="black" stroke-width="2"/>
<path d="M253 292.5L259 283" stroke="black" stroke-width="2"/>
<path d="M261 295.5L267 286" stroke="black" stroke-width="2"/>
<path d="M269 297.5L275 288" stroke="black" stroke-width="2"/>
<path d="M55.5 103V93.5H103V103H55.5Z" fill="black" stroke="black" stroke-width="2"/>
<path d="M87.5 58.5H70.5V92.5H87.5V58.5Z" fill="black" stroke="black" stroke-width="2"/>
<path d="M358.5 362.5L351.5 379.5L356 381L362 364C364.588 363.281 366.522 362.325 367.944 361.318C371.284 358.955 371.382 354.448 371.146 350.363L370 330.5L356 348.5C350.8 356.5 355.5 361.167 358.5 362.5Z" fill="black" stroke="black" stroke-width="2"/>
<path d="M377.5 375L370.5 386.5L366 385L373.5 372.5C367.5 359.7 384.333 347.5 393.5 343L390.724 352.369C389.912 355.109 389.5 357.951 389.5 360.808C389.5 365.223 389.057 370.041 385.792 373.014C382.666 375.861 379.25 375.7 377.5 375Z" fill="black" stroke="black" stroke-width="2"/>
<path d="M336 368.5L337 374L341.5 375.5L340.5 367.5C341.365 366.478 342.012 365.439 342.485 364.413C345.336 358.227 340.119 351.945 336.905 345.939C335.098 342.562 333.707 339.356 333 337.5C321.8 353.9 330.333 365 336 368.5Z" fill="black" stroke="black" stroke-width="2"/>
<path d="M147 208C153.833 208.833 171.6 207.3 188 194.5C190.167 192 200.1 183 222.5 167" stroke="black" stroke-width="2"/>
<path d="M148.5 258.5C152.167 259.5 165.3 261.7 188.5 262.5" stroke="black" stroke-width="2"/>
<path d="M346 116C427 152.5 520.5 316.5 296 340.5L284.5 298C323 291.333 386.2 261.8 331 197" stroke="black" stroke-width="2"/>
<path d="M288 204.5L212 194L206 229L288 241V204.5Z" fill="#5F1798" stroke="black" stroke-width="2"/>
<path d="M274.5 289C248.5 285.4 212.667 266.5 198 257.5C200.4 251.9 204 238.5 205.5 232.5C215.9 234.5 264.5 241 287.5 244C284.3 272.4 277.5 285.833 274.5 289Z" fill="#5F1798" stroke="black" stroke-width="2"/>
<path d="M212.5 190.5C212.1 181.3 221.667 161.333 226.5 152.5L284.5 167C283.7 172.6 286.5 191.833 287.5 201C273.5 197.8 231.667 192.667 212.5 190.5Z" fill="#5F1798" stroke="black" stroke-width="2"/>
<path d="M256.5 116L273.506 106.348C274.173 105.969 275 106.451 275 107.217V116.515C275 118.106 275.615 119.664 276.942 120.543C280.759 123.074 286.937 125.165 290 126L288.5 130.5L256.5 116Z" fill="#5F1798" stroke="black" stroke-width="2"/>
<path d="M284.5 163.5C274.5 159.5 242.667 152.5 228 149.5C233.6 139.1 247.333 124.5 253.5 118.5L288 133.5C286 140.3 284.833 156.333 284.5 163.5Z" fill="#5F1798" stroke="black" stroke-width="2"/>
<path d="M313 125V95.4762L316.5 94L331 94.4921L330.5 125H313Z" fill="#5F1798" stroke="black" stroke-width="2"/>
<path d="M333.5 124.5V95C337.692 94.1616 340.479 94.8853 342.47 96.1235C345.17 97.8019 346 101.232 346 104.411V118C346.4 122.8 337.833 124.333 333.5 124.5Z" fill="#5F1798" stroke="black" stroke-width="2"/>
<path d="M295 124V96L309.5 94L310 126L295 124Z" fill="#5F1798" stroke="black" stroke-width="2"/>
<path d="M278.5 116L279 98.5L292 96V123C284 121.4 279.667 117.667 278.5 116Z" fill="#5F1798" stroke="black" stroke-width="2"/>
<path d="M271.5 46C255.9 43.2 263.5 37 267 32C296.2 38 334.833 51.1667 350.5 57L349 59C353.4 75 347.833 78 344.5 77.5C343.7 91.1 330.167 93.1667 323.5 92.5L271.5 46Z" fill="black" stroke="black" stroke-width="2"/>
<path d="M267 27C266.5 28.6667 265.8 32.2 267 33C290.833 38.5 340.9 51.2 350.5 58C350.833 58.3333 351.5 57.6 351.5 52" stroke="black" stroke-width="2"/>
<path d="M284.836 9.11575C300.269 10.621 312.155 9.3989 316.5 8.5H320C323.326 12.7327 329.717 17.0415 334.511 19.8288C337.113 21.3415 340.063 22.0895 342.928 23.0103C348.53 24.8106 352.131 28.1425 354.162 31.0251C355.667 33.1622 356 35.8326 356 38.4466C356 41.8055 356.665 45.4767 354.787 48.2617C353.666 49.9246 352.074 51.2842 351 52C333.4 43.6 288 31.8333 267.5 27V22.5C267.5 19.5273 266.794 16.0892 268.933 14.0247C270.311 12.6939 272.398 11.4722 274.511 10.4747C277.708 8.96559 281.318 8.77257 284.836 9.11575Z" fill="white" stroke="black" stroke-width="2"/>
<path d="M321 8.49999H317L317.358 3.84388C317.451 2.6425 317.857 1.26819 319.043 1.05686C319.36 1.00032 319.687 1.00256 320.013 1.0481C322.026 1.3296 322.58 3.76086 321.937 5.68945L321 8.49999Z" fill="white" stroke="black" stroke-width="2"/>
<path d="M273 61.5031V49V46.5C275.807 47.2654 279.305 46.1729 282.119 44.8055C284.783 43.5109 286.656 40.3801 289.614 40.219C290.287 40.1823 290.987 40.2479 291.67 40.3766C293.923 40.8015 295.499 42.681 297.141 44.2812C302.313 49.3228 312.734 52.146 318 53C317.6 67 323.167 62.1667 326 58C329.2 52.4 334 54.3333 336 56C344 69.2 334.667 70.8333 329 70C329.52 77.2749 327.817 83.5373 325.921 87.8553C324.396 91.3264 320.872 93.2313 317.103 93.6409L281.184 97.5453C278.455 97.8419 275.583 97.4597 273.495 95.6775C267.749 90.7715 267.758 83.6555 269.507 77.7148C271.073 72.3925 273 67.0511 273 61.5031Z" fill="white" stroke="black" stroke-width="2"/>
<path d="M426.5 283.5C430.333 312 437.1 379.8 433.5 423H161.5C162.833 406.5 167.2 365.9 174 335.5C180.5 298.167 197.4 217.8 213 195" stroke="black" stroke-width="2"/>
<path d="M260 317C260 323.305 254.704 329.3 245.479 333.778C236.323 338.223 223.604 341 209.5 341C195.396 341 182.677 338.223 173.521 333.778C164.296 329.3 159 323.305 159 317C159 310.695 164.296 304.7 173.521 300.222C182.677 295.777 195.396 293 209.5 293C223.604 293 236.323 295.777 245.479 300.222C254.704 304.7 260 310.695 260 317Z" fill="white" stroke="black" stroke-width="2"/>
<ellipse cx="215" cy="302" rx="8" ry="4" fill="black"/>
<ellipse cx="205" cy="330" rx="8" ry="4" fill="black"/>
<ellipse cx="236" cy="327" rx="8" ry="4" transform="rotate(-9.35298 236 327)" fill="black"/>
<ellipse cx="174.732" cy="322.823" rx="8" ry="4" transform="rotate(14.0514 174.732 322.823)" fill="black"/>
<ellipse cx="187.732" cy="304.823" rx="8" ry="4" transform="rotate(-5.40468 187.732 304.823)" fill="#5F1798"/>
<ellipse cx="241.798" cy="308.071" rx="8" ry="4" transform="rotate(16.1814 241.798 308.071)" fill="black"/>
<circle cx="231.5" cy="361.5" r="4.5" fill="black"/>
<circle cx="227.5" cy="410.5" r="4.5" fill="black"/>
<path d="M319.5 378V366.22C319.5 365.358 320.525 364.873 321.213 365.392C333.073 374.342 362.906 385.066 377 389.5V403.5C361 399.1 332 384.667 319.5 378Z" stroke="black" stroke-width="2"/>
<path d="M237.5 307C264.3 309.8 280.667 305.833 285.5 303.5L292.5 333.5C284.333 337.167 256.4 343.8 232 339C239.667 337.566 260.3 331.278 259.5 319.599C241.817 315.033 237.354 309.476 237.5 307Z" fill="white"/>
<path d="M259.5 319.599C241.817 315.033 237.354 309.476 237.5 307C264.3 309.8 280.667 305.833 285.5 303.5L292.5 333.5C284.333 337.167 256.4 343.8 232 339C239.667 337.566 260.3 331.278 259.5 319.599ZM259.5 319.599C262.05 320.257 264.875 320.895 268 321.5L259.5 319.599Z" stroke="black" stroke-width="2"/>
</svg>
