<svg width="15" height="14" viewBox="0 0 15 14" fill="none" xmlns="http://www.w3.org/2000/svg">
<g clip-path="url(#clip0_119_706)">
<path d="M10.7056 10.4649C9.76996 11.225 8.63067 11.6461 7.45437 11.6666C3.62297 11.6666 1.43359 6.99993 1.43359 6.99993C2.11443 5.64771 3.05873 4.46629 4.20315 3.53493M6.30495 2.47327C6.68171 2.37928 7.06744 2.3323 7.45437 2.33327C11.2858 2.33327 13.4752 6.99993 13.4752 6.99993C13.1429 7.66237 12.7467 8.28603 12.2929 8.86077M8.61474 8.2366C8.46441 8.40854 8.28313 8.54644 8.08171 8.64209C7.88029 8.73774 7.66286 8.78917 7.44238 8.79331C7.22191 8.79746 7.0029 8.75424 6.79844 8.66622C6.59398 8.5782 6.40825 8.4472 6.25232 8.28102C6.0964 8.11485 5.97348 7.9169 5.89089 7.69899C5.80831 7.48109 5.76775 7.24769 5.77164 7.01271C5.77553 6.77774 5.82379 6.54601 5.91353 6.33134C6.00328 6.11668 6.13268 5.92348 6.29401 5.76327" stroke="black" stroke-linecap="round" stroke-linejoin="round"/>
</g>
<defs>
<clipPath id="clip0_119_706">
<rect width="13.1362" height="14" fill="white" transform="translate(0.886719)"/>
</clipPath>
</defs>
</svg>
